<svg xmlns="http://www.w3.org/2000/svg" xmlns:xlink="http://www.w3.org/1999/xlink" viewBox="0,0,256,256" width="48px" height="48px" fill-rule="nonzero"><g fill="none" fill-rule="nonzero" stroke="none" stroke-width="none" stroke-linecap="none" stroke-linejoin="none" stroke-miterlimit="10" stroke-dasharray="" stroke-dashoffset="0" font-family="none" font-weight="none" font-size="none" text-anchor="none" style="mix-blend-mode: normal"><g transform="scale(5.33333,5.33333)"><path d="M32.184,7.888c-2.245,-1.256 -4.184,-2.339 -4.184,-3.888c0,-0.552 -0.448,-1 -1,-1h-4c-0.552,0 -1,0.448 -1,1v2v19.75c-1.254,-0.494 -2.611,-0.75 -4,-0.75c-5.514,0 -10,4.038 -10,9c0,0.338 0,1.662 0,2c0,4.962 4.486,9 10,9c5.514,0 10,-4.038 10,-9v-18.853c1.726,0.431 4.366,1.801 4.898,4.041c-0.387,2.52 -1.776,5.332 -1.793,5.365c-0.07,0.142 -0.105,0.306 -0.105,0.447c0,0.141 0,1.792 0,2c0,0.208 0.101,0.515 0.293,0.707l2,2c0.375,0.375 1.039,0.375 1.414,0c0.216,-0.216 5.293,-5.366 5.293,-11.707c0,-0.349 0,-1.666 0,-2c0,-5.743 -4.333,-8.166 -7.816,-10.112z" fill="#fa6800" stroke="none" stroke-width="1" stroke-linecap="butt" stroke-linejoin="miter"></path><path d="M27,4h-2h-2v23.349c-1.43,-0.851 -3.149,-1.349 -5,-1.349c-4.971,0 -9,3.582 -9,8c0,4.418 4.029,8 9,8c4.971,0 9,-3.582 9,-8v-20c2,0 7,2 7,6c0,3 -2,7 -2,7l2,2c0,0 5,-5 5,-11c0,-9 -12,-9 -12,-14z" fill="#ffffff" stroke="none" stroke-width="1" stroke-linecap="butt" stroke-linejoin="miter"></path><path d="M27,4h-2h-2v23.349c-1.43,-0.851 -3.149,-1.349 -5,-1.349c-4.971,0 -9,3.582 -9,8c0,4.418 4.029,8 9,8c4.971,0 9,-3.582 9,-8v-20c2,0 7,2 7,6c0,3 -2,7 -2,7l2,2c0,0 5,-5 5,-11c0,-9 -12,-9 -12,-14z" fill="none" stroke="#fa6800" stroke-width="2" stroke-linecap="round" stroke-linejoin="round"></path></g></g></svg>