<svg width="96" height="96" viewBox="0 0 96 96" fill="none" xmlns="http://www.w3.org/2000/svg">
<g id="Group 17">
<g id="Group">
<path id="Vector" d="M48.059 26.9917C54.9207 26.9917 55.7334 27.0178 58.4432 27.1414C60.9487 27.2558 62.3094 27.6744 63.215 28.0263C64.4144 28.4924 65.2706 29.0494 66.1698 29.9486C67.069 30.8478 67.6259 31.704 68.092 32.9034C68.444 33.809 68.8626 35.1697 68.9769 37.6751C69.1006 40.385 69.1267 41.1977 69.1267 48.0594C69.1267 54.9211 69.1006 55.7338 68.9769 58.4435C68.8626 60.949 68.444 62.3097 68.092 63.2154C67.6259 64.4148 67.069 65.2709 66.1698 66.1701C65.2706 67.0693 64.4144 67.6263 63.215 68.0924C62.3094 68.4443 60.9487 68.8629 58.4432 68.9773C55.7338 69.1009 54.9211 69.127 48.059 69.127C41.1969 69.127 40.3842 69.1009 37.6749 68.9773C35.1694 68.8629 33.8087 68.4443 32.9031 68.0924C31.7036 67.6263 30.8475 67.0693 29.9483 66.1701C29.0491 65.2709 28.4921 64.4148 28.026 63.2154C27.6741 62.3097 27.2554 60.949 27.1411 58.4436C27.0175 55.7338 26.9913 54.9211 26.9913 48.0594C26.9913 41.1977 27.0175 40.385 27.1411 37.6752C27.2554 35.1697 27.6741 33.809 28.026 32.9034C28.4921 31.704 29.0491 30.8478 29.9483 29.9486C30.8475 29.0494 31.7036 28.4924 32.9031 28.0263C33.8087 27.6744 35.1693 27.2558 37.6748 27.1414C40.3846 27.0178 41.1973 26.9917 48.059 26.9917ZM48.059 22.3613C41.0798 22.3613 40.2048 22.3909 37.4638 22.516C34.7285 22.6408 32.8605 23.0752 31.2258 23.7105C29.5359 24.3672 28.1028 25.2459 26.6742 26.6745C25.2456 28.1032 24.3669 29.5363 23.7101 31.2262C23.0748 32.8608 22.6405 34.7288 22.5156 37.4642C22.3906 40.205 22.3611 41.0802 22.3611 48.0594C22.3611 55.0386 22.3906 55.9137 22.5156 58.6546C22.6405 61.3899 23.0748 63.2579 23.7101 64.8926C24.3669 66.5823 25.2456 68.0156 26.6742 69.4442C28.1028 70.8728 29.5359 71.7515 31.2258 72.4082C32.8605 73.0435 34.7285 73.4779 37.4638 73.6028C40.2048 73.7278 41.0798 73.7573 48.059 73.7573C55.0382 73.7573 55.9134 73.7278 58.6542 73.6028C61.3896 73.4779 63.2575 73.0435 64.8922 72.4082C66.5821 71.7515 68.0152 70.8728 69.4438 69.4442C70.8725 68.0156 71.7512 66.5824 72.4079 64.8926C73.0432 63.2579 73.4776 61.3899 73.6024 58.6546C73.7275 55.9137 73.7571 55.0386 73.7571 48.0594C73.7571 41.0802 73.7275 40.205 73.6024 37.4642C73.4776 34.7288 73.0432 32.8608 72.4079 31.2262C71.7512 29.5363 70.8725 28.1032 69.4438 26.6745C68.0152 25.2459 66.5821 24.3672 64.8922 23.7105C63.2575 23.0752 61.3896 22.6408 58.6542 22.516C55.9134 22.3909 55.0382 22.3613 48.059 22.3613ZM48.059 34.8631C40.7709 34.8631 34.8627 40.7713 34.8627 48.0594C34.8627 55.3475 40.7709 61.2557 48.059 61.2557C55.3471 61.2557 61.2553 55.3475 61.2553 48.0594C61.2553 40.7713 55.3471 34.8631 48.059 34.8631ZM48.059 56.6254C43.3282 56.6254 39.493 52.7902 39.493 48.0594C39.493 43.3285 43.3282 39.4933 48.059 39.4933C52.7899 39.4933 56.6251 43.3285 56.6251 48.0594C56.6251 52.7902 52.7899 56.6254 48.059 56.6254ZM64.8604 34.3417C64.8604 36.0448 63.4798 37.4255 61.7767 37.4255C60.0736 37.4255 58.6929 36.0448 58.6929 34.3417C58.6929 32.6386 60.0736 31.258 61.7767 31.258C63.4798 31.258 64.8604 32.6386 64.8604 34.3417Z" fill="white"/>
</g>
<circle id="Ellipse 13" cx="47.9839" cy="47.9839" r="47.0522" stroke="white" stroke-width="1.86345"/>
</g>
</svg>
